<svg xmlns="http://www.w3.org/2000/svg" xmlns:xlink="http://www.w3.org/1999/xlink" version="1.1" x="0px" y="0px" viewBox="0 0 96 120" style="enable-background:new 0 0 96 96;" xml:space="preserve"><g><path d="M65.2,44.3c0.1,1,0,1.7-0.1,2.4c-0.9,4.2-4.6,6.3-7.4,6.7c-3.5,0.6-6.7-0.9-8.4-3.9c-1.5-2.8-1.7-6.3-0.3-9.5   c0.4-1.1,1-2.2,1.6-3.4c0.5-0.9,0.9-1.7,1.3-2.6c4.6-9.7,4.5-20.5-0.3-28.1c-0.7-1.1-1.9-1.8-3.2-1.9c-1.3-0.1-2.5,0.4-3.4,1.4   c-3.1,3.5-6.6,6.9-10,10.1c-2.8,2.6-5.6,5.3-8.3,8.2c-8,8.6-12.7,16.8-14.2,25.2c-1.3,7.1-0.3,14.8,2.8,21.6   C20.8,82.8,33.4,91.4,46.5,92c0.4,0,0.9,0,1.4,0c12.7,0,25.2-7.4,31.5-18.8c7.8-14.2,5.4-33-5.7-44.7l-0.2-0.2   c-1.5-1.5-3.1-3.2-5.2-4.3l-1.5-0.8l-1.5,1c-1.6,1-1.6,1-0.9,9.5C64.6,36.8,65,40.6,65.2,44.3z M71.1,47.8c0.2-1.2,0.3-2.6,0.2-4.1   c-0.3-3.4-0.5-6.9-0.8-9.9c8.3,9.8,9.9,25.1,3.7,36.4c-5.5,9.9-16.5,16.2-27.4,15.7s-21.3-7.7-26-18c-2.5-5.7-3.4-12.1-2.3-18   c1.3-7.2,5.5-14.4,12.7-22.1c2.5-2.7,5.3-5.3,8-7.9c2.8-2.7,5.7-5.4,8.5-8.4c2.4,5.7,2,13.3-1.2,20.1c-0.4,0.8-0.8,1.6-1.2,2.4   c-0.6,1.2-1.2,2.4-1.8,3.7c-2.1,4.9-1.9,10.4,0.6,14.8c2.9,5.1,8.5,7.7,14.5,6.8C64.8,58.3,69.7,53.9,71.1,47.8z"/></g></svg>